<svg xmlns="http://www.w3.org/2000/svg" xmlns:xlink="http://www.w3.org/1999/xlink" width="13.994" height="19.07" viewBox="0 0 13.994 19.07">
  <defs>
    <clipPath id="clip-path">
      <rect id="사각형_2" data-name="사각형 2" width="13.994" height="19.07" fill="none"/>
    </clipPath>
  </defs>
  <g id="그룹_1" data-name="그룹 1" clip-path="url(#clip-path)">
    <path id="패스_1" data-name="패스 1" d="M4.327,7.278h-3.1A1.224,1.224,0,0,0,.06,8.878l.757,2.357a4.351,4.351,0,0,0,3.793,3.02c.121.011.245.016.369.016h1.13ZM3.66,13.235a3.561,3.561,0,0,1-2.094-2.24L.808,8.638a.44.44,0,0,1,.418-.573h2.49l1.38,5.42H4.979a3.594,3.594,0,0,1-1.319-.25" transform="translate(0 -5.929)" fill="#f5d964"/>
    <path id="패스_2" data-name="패스 2" d="M14.876,14.27h-1.13c-.123,0-.247,0-.369-.016q-.051-.044-.108-.088a3.7,3.7,0,0,1-.843-.933,3.6,3.6,0,0,0,1.319.25h.117l-1.38-5.42H10.954l-.193-.787h2.333Z" transform="translate(-8.766 -5.928)" fill="#eec050"/>
    <path id="패스_3" data-name="패스 3" d="M42.536,14.271h1.13c.124,0,.247,0,.369-.016a4.351,4.351,0,0,0,3.793-3.02l.757-2.357a1.224,1.224,0,0,0-1.166-1.6h-3.1Zm1.13-.787H43.55l1.38-5.42h2.49a.44.44,0,0,1,.418.573l-.757,2.357a3.575,3.575,0,0,1-3.413,2.49" transform="translate(-34.651 -5.929)" fill="#f5d964"/>
    <path id="패스_4" data-name="패스 4" d="M42.536,14.27h1.13c.123,0,.247,0,.369-.016q.051-.044.108-.088a3.7,3.7,0,0,0,.843-.933,3.6,3.6,0,0,1-1.319.25h-.117l1.38-5.42h1.528l.193-.787H44.318Z" transform="translate(-34.651 -5.928)" fill="#eec050"/>
    <path id="패스_5" data-name="패스 5" d="M21.212,0l-.338,1.369L19.713,6.1a3.213,3.213,0,0,1-.425.989,3.3,3.3,0,0,1-.729.8,3.247,3.247,0,0,0-1.2,1.986L16.908,12.4H15.775l-.452-2.523a3.3,3.3,0,0,0-.415-1.1,3.265,3.265,0,0,0-.784-.883A3.25,3.25,0,0,1,12.97,6.1L11.809,1.373,11.471,0Z" transform="translate(-9.345 -0.003)" fill="#f5d964"/>
    <path id="패스_6" data-name="패스 6" d="M20.24,12.392h-.171L19.7,9.87a3.8,3.8,0,0,0-.333-1.1,3.177,3.177,0,0,0-.63-.883,3.4,3.4,0,0,1-.93-1.785l-.934-4.729L16.6,0H18.07l.171,1.369L18.825,6.1a4.355,4.355,0,0,0,.581,1.785,3.514,3.514,0,0,1,.4.883,5.551,5.551,0,0,1,.208,1.1Z" transform="translate(-13.527)" fill="#f5e089"/>
    <path id="패스_7" data-name="패스 7" d="M24.446,64.729H16.61a1.321,1.321,0,0,1,1.321-1.321h5.194A1.321,1.321,0,0,1,24.446,64.729Z" transform="translate(-13.531 -51.654)" fill="#f5d964"/>
    <path id="패스_8" data-name="패스 8" d="M21.212,0l-.338,1.369H11.808L11.471,0Z" transform="translate(-9.344 -0.004)" fill="#eec050"/>
    <path id="패스_9" data-name="패스 9" d="M18.957,1H9.178a.5.5,0,0,1,0-1h9.779a.5.5,0,1,1,0,1" transform="translate(-7.07 -0.006)" fill="#f5d964"/>
    <path id="패스_10" data-name="패스 10" d="M46.27,64.609v.124h-.906v-.21a1.109,1.109,0,0,0-1.11-1.11h.818a1.2,1.2,0,0,1,1.2,1.2" transform="translate(-36.051 -51.657)" fill="#eec050"/>
    <path id="패스_11" data-name="패스 11" d="M21.361,64.609v.124h.514v-.21a1.109,1.109,0,0,1,1.11-1.11h-.426a1.2,1.2,0,0,0-1.2,1.2" transform="translate(-17.401 -51.657)" fill="#f5e089"/>
    <path id="패스_12" data-name="패스 12" d="M29.732,13.366l.484.98L31.3,14.5a.223.223,0,0,1,.124.38l-.782.763.185,1.077a.223.223,0,0,1-.324.235l-.967-.508-.967.508a.223.223,0,0,1-.323-.235l.185-1.077-.782-.763a.223.223,0,0,1,.123-.38l1.081-.157.484-.98a.223.223,0,0,1,.4,0" transform="translate(-22.465 -10.787)" fill="#e0a535"/>
    <path id="패스_13" data-name="패스 13" d="M30.658,14.121l-.782.763.184,1.077a.223.223,0,0,1-.323.235l-.953-.5-.014-.007-.876.46L27.8,16.2a.223.223,0,0,1-.323-.235l0-.025.131-.765.049-.286-.782-.763a.223.223,0,0,1,.124-.38l1.081-.158.483-.979a.223.223,0,0,1,.4,0l.029.058.138.279.248.5.068.138.46.067.621.09a.223.223,0,0,1,.124.38" transform="translate(-21.843 -10.166)" fill="#f5d964"/>
    <path id="패스_14" data-name="패스 14" d="M32.081,13.742l-1.653,2.994.131-.765,1.384-2.508Z" transform="translate(-24.788 -10.967)" fill="#f5e089"/>
    <path id="패스_15" data-name="패스 15" d="M34.66,17.894l-1.129,2.043-.014-.007-.876.46,1.491-2.7.068.138Z" transform="translate(-26.591 -14.41)" fill="#f5e089"/>
    <path id="패스_16" data-name="패스 16" d="M28.958,12.585a.222.222,0,0,0-.314.094l-.485.979-1.081.157a.223.223,0,0,0-.131.371l-.067-.065A.224.224,0,0,1,27,13.74l1.083-.157.483-.979a.222.222,0,0,1,.388-.02" transform="translate(-21.844 -10.166)" fill="#f5e089"/>
    <path id="패스_17" data-name="패스 17" d="M30.465,26.582l0,.026a.218.218,0,0,0,.027.151.214.214,0,0,1-.1-.226l0-.025.131-.765.049-.284.075.072-.049.286Z" transform="translate(-24.751 -20.739)" fill="#f5e089"/>
    <path id="패스_18" data-name="패스 18" d="M20.383,96.384H11.142a.382.382,0,0,0-.382.382v.821h10v-.821a.382.382,0,0,0-.382-.382" transform="translate(-8.765 -78.517)" fill="#c28468"/>
    <path id="패스_19" data-name="패스 19" d="M22.69,75.326H13.819V70.958a.424.424,0,0,1,.424-.424h8.024a.424.424,0,0,1,.424.424Z" transform="translate(-11.257 -57.459)" fill="#c28468"/>
    <rect id="사각형_1" data-name="사각형 1" width="8.871" height="0.618" transform="translate(2.562 17.248)" fill="#af6859"/>
    <path id="패스_20" data-name="패스 20" d="M27.28,77.282V78.8c0,.178-.1.319-.222.319H21.335c-.122,0-.222-.141-.222-.319v-1.52c0-.175.1-.319.222-.319h5.723c.122,0,.222.144.222.319" transform="translate(-17.199 -62.696)" fill="#e9e8ef"/>
    <path id="패스_21" data-name="패스 21" d="M26.091,76.963,25.2,79.12h-.987l.891-2.158Z" transform="translate(-19.725 -62.696)" fill="#fff"/>
    <path id="패스_22" data-name="패스 22" d="M46.483,76.963l-.891,2.158H45.1l.891-2.158Z" transform="translate(-36.739 -62.696)" fill="#fff"/>
    <path id="패스_23" data-name="패스 23" d="M35.7,76.963l-.891,2.158H34.34l.891-2.158Z" transform="translate(-27.974 -62.696)" fill="#fff"/>
  </g>
</svg>
